<svg width="321" height="122" viewBox="0 0 321 122" fill="none" xmlns="http://www.w3.org/2000/svg">
<path d="M249.315 69.0544C247.525 69.0544 245.935 68.8042 244.543 68.3038C243.151 67.7867 242.049 67.0444 241.237 66.0769C240.442 65.1094 240.044 63.9417 240.044 62.5739C240.044 61.1393 240.442 59.9383 241.237 58.9708C242.049 58.0033 243.151 57.2776 244.543 56.7939C245.935 56.3101 247.525 56.0683 249.315 56.0683C251.303 56.0683 253.018 56.3435 254.459 56.894C255.917 57.4278 257.036 58.1867 257.814 59.1709C258.61 60.1384 259.007 61.2727 259.007 62.5739C259.007 63.5414 258.784 64.4254 258.336 65.2261C257.889 66.0101 257.243 66.6941 256.398 67.2779C255.553 67.8451 254.534 68.2871 253.341 68.604C252.148 68.9043 250.806 69.0544 249.315 69.0544ZM251.551 65.2512C252.811 65.2512 253.962 65.1761 255.006 65.026C256.066 64.8592 256.911 64.5839 257.541 64.2003C258.187 63.8166 258.51 63.2745 258.51 62.5739C258.51 61.8566 258.187 61.3061 257.541 60.9224C256.911 60.5388 256.066 60.2719 255.006 60.1217C253.962 59.9716 252.811 59.8966 251.551 59.8966C249.861 59.8966 248.553 60.1217 247.625 60.5721C246.697 61.0058 246.233 61.6731 246.233 62.5739C246.233 63.1577 246.44 63.6498 246.854 64.0501C247.268 64.4505 247.873 64.7507 248.668 64.9509C249.464 65.1511 250.425 65.2512 251.551 65.2512ZM258.51 56.4436H264.475V68.7041H258.858C258.858 68.7041 258.825 68.5123 258.759 68.1286C258.709 67.745 258.651 67.1945 258.585 66.4772C258.535 65.7599 258.51 64.9175 258.51 63.95V56.4436Z" fill="#F8F4EC"/>
<path d="M292.422 66.4022L289.837 66.3521L295.23 56.4436H301.816L294.137 68.7041H288.52L282.232 59.1959L285.165 59.221L278.628 68.7041H273.012L265.73 56.4436H272.291L277.361 66.3521H274.801L280.418 56.4436H287.004L292.422 66.4022Z" fill="#F8F4EC"/>
<path d="M301.938 64.3003H307.43C307.662 64.734 308.101 65.0343 308.747 65.2011C309.41 65.3679 310.355 65.4513 311.581 65.4513C312.525 65.4513 313.221 65.4013 313.668 65.3012C314.132 65.2011 314.43 65.0677 314.563 64.9009C314.712 64.734 314.787 64.5589 314.787 64.3754C314.787 64.0918 314.629 63.9 314.314 63.7999C314.016 63.6831 313.503 63.6164 312.774 63.5997C312.045 63.5664 311.042 63.5497 309.766 63.5497C308.557 63.5497 307.472 63.4997 306.511 63.3996C305.566 63.2828 304.763 63.1076 304.1 62.8741C303.437 62.6239 302.932 62.2819 302.584 61.8482C302.236 61.4145 302.062 60.8724 302.062 60.2218C302.062 59.4211 302.319 58.7539 302.832 58.2201C303.346 57.6696 304.042 57.2443 304.92 56.944C305.798 56.6271 306.809 56.4019 307.952 56.2684C309.112 56.135 310.321 56.0683 311.581 56.0683C313.668 56.0683 315.375 56.2851 316.7 56.7188C318.026 57.1358 319.003 57.703 319.633 58.4203C320.263 59.1376 320.569 59.9466 320.553 60.8474H315.209C315.027 60.4137 314.679 60.1134 314.165 59.9466C313.668 59.7798 312.807 59.6964 311.581 59.6964C310.421 59.6964 309.576 59.7881 309.046 59.9716C308.532 60.1384 308.275 60.4137 308.275 60.7973C308.275 61.0475 308.399 61.2394 308.648 61.3728C308.913 61.4896 309.402 61.573 310.114 61.623C310.843 61.6731 311.904 61.6981 313.296 61.6981C314.257 61.6981 315.193 61.7315 316.104 61.7982C317.032 61.8649 317.86 62.0067 318.589 62.2236C319.335 62.4404 319.923 62.774 320.354 63.2244C320.785 63.6748 321 64.292 321 65.076C321 66.0268 320.611 66.8025 319.832 67.403C319.07 67.9868 317.984 68.4122 316.576 68.6791C315.168 68.946 313.503 69.0795 311.581 69.0795C309.907 69.0795 308.491 68.971 307.331 68.7542C306.188 68.5373 305.251 68.2537 304.522 67.9034C303.793 67.5365 303.23 67.1445 302.832 66.7274C302.451 66.2937 302.194 65.8684 302.062 65.4513C301.946 65.0176 301.904 64.634 301.938 64.3003Z" fill="#F8F4EC"/>
<path d="M141.724 89.4964H151.056C151.45 90.2333 152.196 90.7434 153.294 91.0268C154.42 91.3103 156.025 91.452 158.108 91.452C159.712 91.452 160.895 91.3669 161.655 91.1969C162.443 91.0268 162.95 90.8001 163.175 90.5167C163.428 90.2333 163.555 89.9357 163.555 89.624C163.555 89.1422 163.287 88.8162 162.753 88.6462C162.246 88.4478 161.373 88.3344 160.135 88.3061C158.896 88.2494 157.193 88.2211 155.025 88.2211C152.97 88.2211 151.126 88.1361 149.494 87.966C147.889 87.7676 146.524 87.47 145.398 87.0733C144.272 86.6482 143.413 86.0672 142.822 85.3303C142.231 84.5934 141.935 83.6723 141.935 82.567C141.935 81.2067 142.372 80.073 143.244 79.1661C144.117 78.2309 145.299 77.5082 146.791 76.998C148.283 76.4595 150 76.0769 151.943 75.8502C153.913 75.6235 155.968 75.5101 158.108 75.5101C161.655 75.5101 164.554 75.8785 166.806 76.6154C169.058 77.3239 170.719 78.2875 171.789 79.5062C172.859 80.7249 173.379 82.0994 173.351 83.6298H164.273C163.963 82.893 163.372 82.3828 162.499 82.0994C161.655 81.816 160.191 81.6743 158.108 81.6743C156.137 81.6743 154.702 81.8302 153.801 82.1419C152.928 82.4253 152.492 82.893 152.492 83.5448C152.492 83.9699 152.703 84.2958 153.125 84.5226C153.576 84.721 154.406 84.8627 155.616 84.9477C156.855 85.0327 158.657 85.0752 161.021 85.0752C162.654 85.0752 164.245 85.1319 165.793 85.2453C167.369 85.3586 168.777 85.5995 170.015 85.968C171.282 86.3364 172.281 86.9032 173.013 87.6684C173.745 88.4336 174.111 89.4823 174.111 90.8143C174.111 92.4297 173.45 93.7476 172.127 94.7679C170.832 95.7598 168.988 96.4825 166.595 96.936C164.202 97.3894 161.373 97.6161 158.108 97.6161C155.265 97.6161 152.858 97.4319 150.887 97.0635C148.945 96.6951 147.354 96.2133 146.116 95.6181C144.877 94.9946 143.92 94.3286 143.244 93.62C142.597 92.8832 142.161 92.1605 141.935 91.452C141.738 90.7151 141.668 90.0632 141.724 89.4964Z" fill="#F8F4EC"/>
<path d="M192.809 97.6161C189.768 97.6161 187.066 97.2052 184.701 96.3833C182.337 95.5614 180.465 94.3286 179.085 92.6848C177.734 91.041 177.058 89.0005 177.058 86.5631C177.058 84.2392 177.734 82.2553 179.085 80.6115C180.465 78.9677 182.337 77.7207 184.701 76.8705C187.066 75.9919 189.768 75.5526 192.809 75.5526C195.342 75.5526 197.622 75.8219 199.649 76.3603C201.676 76.8705 203.407 77.6215 204.843 78.6135C206.279 79.5771 207.376 80.739 208.136 82.0994C208.897 83.4314 209.277 84.9193 209.277 86.5631C209.277 88.2069 208.897 89.709 208.136 91.0694C207.376 92.4297 206.279 93.6059 204.843 94.5978C203.407 95.5614 201.676 96.3125 199.649 96.8509C197.622 97.3611 195.342 97.6161 192.809 97.6161ZM196.609 91.1119C198.748 91.1119 200.705 90.9843 202.478 90.7293C204.28 90.4742 205.716 90.0207 206.785 89.3689C207.883 88.6887 208.432 87.7534 208.432 86.5631C208.432 85.3728 207.883 84.4517 206.785 83.7999C205.716 83.1197 204.28 82.6521 202.478 82.397C200.705 82.1419 198.748 82.0144 196.609 82.0144C193.738 82.0144 191.514 82.397 189.937 83.1622C188.361 83.9274 187.573 85.0611 187.573 86.5631C187.573 87.5834 187.925 88.4336 188.628 89.1138C189.332 89.7657 190.36 90.2616 191.711 90.6017C193.062 90.9418 194.695 91.1119 196.609 91.1119ZM218.566 76.1478V105.481H208.432V84.225L209.023 76.1478H218.566Z" fill="#F8F4EC"/>
<path d="M224.463 67.6455H234.597V96.9785H224.463V67.6455Z" fill="#F8F4EC"/>
<path d="M103.33 86.4169C101.212 86.4169 99.4674 86.2442 98.0955 85.8989C96.7236 85.5386 95.7096 85.0057 95.0535 84.3001C94.3973 83.5794 94.0693 82.6787 94.0693 81.5977C94.0693 80.5919 94.3899 79.7211 95.0311 78.9855C95.6723 78.2348 96.6714 77.6493 98.0284 77.229C99.4003 76.8086 101.167 76.5984 103.33 76.5984C103.762 76.5984 104.202 76.5984 104.649 76.5984C105.097 76.5984 105.537 76.5984 105.969 76.5984H114.514V79.4359C113.544 79.4809 112.56 79.4359 111.561 79.3008C110.577 79.1506 109.667 78.9555 108.832 78.7152L108.586 78.3775C109.257 78.5876 109.891 78.8579 110.487 79.1882C111.099 79.5184 111.591 79.9163 111.964 80.3817C112.336 80.8471 112.523 81.4026 112.523 82.0481C112.523 82.9789 112.202 83.7746 111.561 84.4352C110.935 85.0807 109.943 85.5762 108.586 85.9215C107.244 86.2517 105.492 86.4169 103.33 86.4169ZM108.094 92.8124V92.2044C108.094 91.754 107.893 91.4837 107.49 91.3937C107.102 91.3186 106.483 91.2811 105.633 91.2811H99.3928C98.3341 91.2811 97.4767 91.206 96.8205 91.0559C96.1793 90.9057 95.6872 90.7031 95.3443 90.4478C95.0162 90.1926 94.7925 89.9074 94.6732 89.5921C94.5688 89.2918 94.5166 88.9916 94.5166 88.6913C94.5166 88.0458 94.7552 87.5428 95.2324 87.1825C95.7096 86.8072 96.4403 86.5445 97.4245 86.3944C98.4087 86.2442 99.6613 86.1692 101.182 86.1692L103.33 86.4169C102.077 86.4169 101.205 86.4844 100.713 86.6195C100.22 86.7397 99.9744 86.9874 99.9744 87.3627C99.9744 87.5729 100.071 87.7305 100.265 87.8356C100.459 87.9257 100.72 87.9707 101.048 87.9707H107.647C109.123 87.9707 110.286 88.0758 111.136 88.286C111.986 88.5112 112.582 88.879 112.925 89.3894C113.283 89.9149 113.462 90.628 113.462 91.5288V92.8124H108.094ZM103.33 83.4668C104.314 83.4668 105.104 83.3918 105.701 83.2416C106.312 83.0765 106.752 82.8588 107.02 82.5886C107.289 82.3184 107.423 82.0181 107.423 81.6878C107.423 81.3125 107.289 80.9897 107.02 80.7195C106.752 80.4492 106.319 80.2391 105.723 80.0889C105.126 79.9388 104.329 79.8637 103.33 79.8637C102.345 79.8637 101.548 79.9388 100.936 80.0889C100.325 80.2391 99.8775 80.4492 99.5942 80.7195C99.3108 80.9897 99.1692 81.3125 99.1692 81.6878C99.1692 82.0181 99.3034 82.3184 99.5718 82.5886C99.8551 82.8588 100.302 83.0765 100.914 83.2416C101.525 83.3918 102.33 83.4668 103.33 83.4668Z" fill="#F8F4EC"/>
<path d="M125.686 88.3085C123.315 88.3085 121.339 88.1133 119.758 87.723C118.193 87.3327 117.014 86.7096 116.224 85.8539C115.449 84.9982 115.061 83.8722 115.061 82.476C115.061 81.0798 115.449 79.9538 116.224 79.0981C117.014 78.2273 118.193 77.5968 119.758 77.2065C121.339 76.8011 123.315 76.5984 125.686 76.5984C128.042 76.5984 129.995 76.8011 131.546 77.2065C133.112 77.5968 134.282 78.2273 135.058 79.0981C135.833 79.9538 136.221 81.0798 136.221 82.476C136.221 83.8722 135.833 84.9982 135.058 85.8539C134.282 86.7096 133.112 87.3327 131.546 87.723C129.995 88.1133 128.042 88.3085 125.686 88.3085ZM125.686 85.0432C126.789 85.0432 127.714 84.9531 128.459 84.773C129.205 84.5778 129.772 84.2925 130.159 83.9172C130.547 83.5269 130.741 83.0465 130.741 82.476C130.741 81.9055 130.547 81.4251 130.159 81.0347C129.787 80.6444 129.227 80.3517 128.482 80.1565C127.736 79.9613 126.804 79.8637 125.686 79.8637C124.582 79.8637 123.643 79.9613 122.867 80.1565C122.107 80.3517 121.525 80.6444 121.123 81.0347C120.735 81.4101 120.541 81.8905 120.541 82.476C120.541 83.0465 120.735 83.5269 121.123 83.9172C121.51 84.2925 122.085 84.5778 122.845 84.773C123.62 84.9531 124.567 85.0432 125.686 85.0432Z" fill="#F8F4EC"/>
<path d="M239.175 73.8586H242.992V81.7053H239.175V73.8586ZM247.096 76.8211C246.407 76.8211 245.776 76.8852 245.203 77.0133C244.63 77.1414 244.143 77.2962 243.74 77.4777C243.337 77.6485 243.034 77.8193 242.833 77.9901L242.801 77.2215C242.833 76.9973 242.918 76.7357 243.056 76.4368C243.194 76.1272 243.379 75.8122 243.612 75.492C243.846 75.161 244.132 74.8568 244.471 74.5792C244.811 74.2909 245.198 74.0614 245.632 73.8906C246.078 73.7091 246.566 73.6184 247.096 73.6184V76.8211Z" fill="#F8F4EC"/>
<path d="M258.89 78.8869H262.644C262.548 79.5061 262.241 80.0452 261.721 80.5043C261.212 80.9634 260.464 81.321 259.478 81.5772C258.503 81.8228 257.257 81.9455 255.74 81.9455C254.139 81.9455 252.755 81.8174 251.589 81.5612C250.433 81.305 249.542 80.8726 248.917 80.2641C248.291 79.6556 247.978 78.8335 247.978 77.798C247.978 76.7731 248.28 75.9564 248.885 75.3479C249.5 74.7287 250.385 74.2856 251.541 74.0187C252.697 73.7518 254.097 73.6184 255.74 73.6184C257.352 73.6184 258.672 73.7625 259.701 74.0507C260.73 74.339 261.488 74.8087 261.976 75.46C262.463 76.1005 262.697 76.9706 262.675 78.0702H251.859C251.912 78.3478 252.061 78.604 252.305 78.8389C252.559 79.0737 252.946 79.2659 253.466 79.4154C253.996 79.5541 254.701 79.6235 255.581 79.6235C256.493 79.6235 257.241 79.5595 257.824 79.4314C258.418 79.3033 258.773 79.1218 258.89 78.8869ZM255.581 75.9404C254.457 75.9404 253.598 76.0631 253.005 76.3087C252.421 76.5542 252.077 76.7998 251.971 77.0453H258.969C258.895 76.7677 258.598 76.5169 258.079 76.2927C257.559 76.0578 256.727 75.9404 255.581 75.9404Z" fill="#F8F4EC"/>
<path d="M269.724 81.9295C268.579 81.9295 267.561 81.7694 266.67 81.4491C265.779 81.1182 265.074 80.6431 264.555 80.0239C264.046 79.4047 263.791 78.6574 263.791 77.782C263.791 76.8638 264.046 76.0952 264.555 75.476C265.074 74.8568 265.779 74.3924 266.67 74.0828C267.561 73.7732 268.579 73.6184 269.724 73.6184C270.996 73.6184 272.094 73.7945 273.017 74.1468C273.95 74.4884 274.665 74.9742 275.164 75.6041C275.673 76.2233 275.927 76.9492 275.927 77.782C275.927 78.4011 275.784 78.967 275.498 79.4794C275.212 79.9812 274.798 80.4189 274.257 80.7925C273.716 81.1555 273.064 81.4384 272.301 81.6413C271.537 81.8334 270.678 81.9295 269.724 81.9295ZM271.156 79.4954C271.961 79.4954 272.698 79.4474 273.366 79.3513C274.045 79.2445 274.586 79.0684 274.989 78.8228C275.402 78.5773 275.609 78.2303 275.609 77.782C275.609 77.3229 275.402 76.9706 274.989 76.725C274.586 76.4795 274.045 76.3087 273.366 76.2126C272.698 76.1165 271.961 76.0685 271.156 76.0685C270.074 76.0685 269.236 76.2126 268.642 76.5008C268.049 76.7784 267.752 77.2055 267.752 77.782C267.752 78.1556 267.884 78.4705 268.149 78.7268C268.414 78.983 268.801 79.1751 269.31 79.3033C269.819 79.4314 270.434 79.4954 271.156 79.4954ZM275.609 73.8586H279.427V81.7053H275.832C275.832 81.7053 275.811 81.5826 275.768 81.337C275.736 81.0915 275.699 80.7392 275.657 80.2801C275.625 79.821 275.609 79.2819 275.609 78.6627V73.8586Z" fill="#F8F4EC"/>
<path d="M295.404 78.2944C295.404 79.063 295.165 79.7196 294.688 80.2641C294.211 80.8085 293.458 81.2249 292.43 81.5132C291.401 81.8014 290.065 81.9455 288.421 81.9455C286.778 81.9455 285.378 81.8121 284.222 81.5452C283.077 81.2783 282.202 80.8406 281.597 80.2321C281.004 79.6235 280.707 78.8122 280.707 77.798C280.707 76.7838 281.004 75.9724 281.597 75.3639C282.202 74.7447 283.077 74.3016 284.222 74.0347C285.378 73.7571 286.778 73.6184 288.421 73.6184C290.065 73.6184 291.396 73.7625 292.414 74.0507C293.432 74.339 294.179 74.7553 294.656 75.2998C295.134 75.8443 295.377 76.4955 295.388 77.2535H291.889C291.719 76.8371 291.337 76.5169 290.743 76.2927C290.15 76.0578 289.376 75.9404 288.421 75.9404C287.647 75.9404 286.974 75.9991 286.401 76.1165C285.828 76.2233 285.383 76.4101 285.065 76.677C284.757 76.9439 284.604 77.3176 284.604 77.798C284.604 78.2677 284.757 78.636 285.065 78.9029C285.372 79.1698 285.813 79.3566 286.385 79.4634C286.958 79.5702 287.636 79.6235 288.421 79.6235C289.376 79.6235 290.15 79.5114 290.743 79.2872C291.348 79.0524 291.735 78.7214 291.905 78.2944H295.404Z" fill="#F8F4EC"/>
<path d="M296.281 73.8586H305.634V76.2606H296.281V73.8586ZM299.049 71.4565H302.866V81.7053H299.049V71.4565Z" fill="#F8F4EC"/>
<path d="M142.138 38.1118H145.653C145.802 38.3894 146.083 38.5815 146.496 38.6883C146.92 38.7951 147.525 38.8484 148.309 38.8484C148.914 38.8484 149.359 38.8164 149.645 38.7524C149.942 38.6883 150.133 38.6029 150.218 38.4961C150.314 38.3894 150.361 38.2773 150.361 38.1598C150.361 37.9784 150.26 37.8556 150.059 37.7915C149.868 37.7168 149.539 37.6741 149.073 37.6634C148.606 37.6421 147.965 37.6314 147.148 37.6314C146.374 37.6314 145.68 37.5994 145.065 37.5353C144.46 37.4606 143.946 37.3485 143.522 37.199C143.097 37.0389 142.774 36.82 142.551 36.5425C142.329 36.2649 142.217 35.9179 142.217 35.5016C142.217 34.9891 142.382 34.5621 142.71 34.2205C143.039 33.8682 143.485 33.5959 144.047 33.4037C144.609 33.2009 145.255 33.0568 145.987 32.9714C146.729 32.886 147.503 32.8433 148.309 32.8433C149.645 32.8433 150.738 32.9821 151.586 33.2596C152.434 33.5265 153.06 33.8895 153.463 34.3486C153.866 34.8076 154.062 35.3254 154.051 35.9019H150.632C150.515 35.6243 150.292 35.4322 149.964 35.3254C149.645 35.2186 149.094 35.1653 148.309 35.1653C147.567 35.1653 147.026 35.224 146.687 35.3414C146.358 35.4482 146.194 35.6243 146.194 35.8699C146.194 36.03 146.273 36.1528 146.432 36.2382C146.602 36.3129 146.915 36.3663 147.371 36.3983C147.837 36.4304 148.516 36.4464 149.407 36.4464C150.022 36.4464 150.621 36.4677 151.204 36.5104C151.798 36.5531 152.328 36.6439 152.795 36.7827C153.272 36.9214 153.648 37.135 153.924 37.4232C154.2 37.7115 154.338 38.1065 154.338 38.6082C154.338 39.2168 154.089 39.7132 153.59 40.0975C153.102 40.4712 152.408 40.7434 151.506 40.9142C150.605 41.085 149.539 41.1704 148.309 41.1704C147.238 41.1704 146.332 41.101 145.589 40.9623C144.858 40.8235 144.259 40.642 143.792 40.4178C143.325 40.1829 142.965 39.932 142.71 39.6651C142.467 39.3876 142.302 39.1153 142.217 38.8484C142.143 38.5709 142.117 38.3253 142.138 38.1118Z" fill="#F8F4EC"/>
<path d="M165.31 41.1704C164.355 41.1704 163.496 41.0744 162.733 40.8822C161.969 40.6793 161.317 40.3964 160.776 40.0335C160.236 39.6598 159.822 39.2168 159.536 38.7043C159.249 38.1919 159.106 37.6261 159.106 37.0069C159.106 36.3877 159.249 35.8272 159.536 35.3254C159.822 34.813 160.236 34.3753 160.776 34.0123C161.317 33.6386 161.969 33.3557 162.733 33.1635C163.496 32.9607 164.355 32.8593 165.31 32.8593C166.455 32.8593 167.473 33.0248 168.364 33.3557C169.265 33.676 169.97 34.1457 170.479 34.7649C170.988 35.3841 171.243 36.1314 171.243 37.0069C171.243 37.925 170.988 38.6936 170.479 39.3128C169.97 39.932 169.265 40.3964 168.364 40.706C167.473 41.0156 166.455 41.1704 165.31 41.1704ZM163.878 38.7203C164.599 38.7203 165.214 38.6563 165.723 38.5282C166.232 38.4001 166.619 38.2132 166.884 37.9677C167.149 37.7115 167.282 37.3912 167.282 37.0069C167.282 36.441 166.985 36.014 166.391 35.7257C165.797 35.4375 164.96 35.2934 163.878 35.2934C163.072 35.2934 162.33 35.3414 161.651 35.4375C160.983 35.5336 160.442 35.7097 160.029 35.966C159.626 36.2115 159.424 36.5585 159.424 37.0069C159.424 37.4552 159.626 37.8075 160.029 38.0638C160.442 38.3093 160.983 38.4801 161.651 38.5762C162.33 38.6723 163.072 38.7203 163.878 38.7203ZM155.607 33.0835H159.202L159.424 36.1261V44.133H155.607V33.0835Z" fill="#F8F4EC"/>
<path d="M172.523 33.0835H176.34V40.9302H172.523V33.0835ZM180.444 36.046C179.755 36.046 179.124 36.1101 178.551 36.2382C177.978 36.3663 177.491 36.5211 177.088 36.7026C176.685 36.8734 176.383 37.0442 176.181 37.215L176.149 36.4464C176.181 36.2222 176.266 35.9606 176.404 35.6617C176.542 35.3521 176.727 35.0372 176.96 34.7169C177.194 34.3859 177.48 34.0817 177.819 33.8041C178.159 33.5158 178.546 33.2863 178.981 33.1155C179.426 32.934 179.914 32.8433 180.444 32.8433V36.046Z" fill="#F8F4EC"/>
<path d="M185.685 28.9679V31.37H181.644V28.9679H185.685ZM181.756 33.0835H185.573V40.9302H181.756V33.0835Z" fill="#F8F4EC"/>
<path d="M187.279 33.0835H191.097V40.9302H187.279V33.0835ZM196.823 32.8433C197.449 32.8433 198.053 32.9127 198.636 33.0514C199.219 33.1796 199.739 33.4037 200.195 33.724C200.662 34.0443 201.033 34.482 201.308 35.0372C201.584 35.5923 201.722 36.2916 201.722 37.135V40.9302H197.905V37.6154C197.905 36.8147 197.698 36.2489 197.284 35.9179C196.871 35.5763 196.123 35.4055 195.041 35.4055C194.469 35.4055 193.912 35.4695 193.371 35.5976C192.841 35.7257 192.364 35.8806 191.94 36.062C191.516 36.2329 191.182 36.4037 190.938 36.5745L190.906 35.966C190.948 35.7738 191.091 35.5069 191.335 35.1653C191.59 34.813 191.956 34.4607 192.433 34.1084C192.91 33.7561 193.509 33.4571 194.23 33.2116C194.962 32.966 195.826 32.8433 196.823 32.8433Z" fill="#F8F4EC"/>
<path d="M209.58 39.8253C208.075 39.8253 206.834 39.7025 205.858 39.457C204.883 39.2007 204.162 38.8217 203.695 38.32C203.228 37.8075 202.995 37.167 202.995 36.3983C202.995 35.683 203.223 35.0638 203.679 34.5407C204.135 34.0069 204.846 33.5906 205.811 33.2917C206.786 32.9927 208.043 32.8433 209.58 32.8433C209.888 32.8433 210.201 32.8433 210.519 32.8433C210.837 32.8433 211.15 32.8433 211.457 32.8433H217.533V34.861C216.844 34.893 216.144 34.861 215.434 34.7649C214.734 34.6582 214.087 34.5194 213.493 34.3486L213.318 34.1084C213.795 34.2578 214.246 34.45 214.67 34.6849C215.105 34.9197 215.455 35.2026 215.72 35.5336C215.985 35.8645 216.118 36.2595 216.118 36.7186C216.118 37.3805 215.89 37.9463 215.434 38.4161C214.988 38.8751 214.283 39.2274 213.318 39.473C212.364 39.7078 211.118 39.8253 209.58 39.8253ZM212.968 44.3732V43.9408C212.968 43.6205 212.825 43.4284 212.539 43.3643C212.263 43.3109 211.823 43.2843 211.219 43.2843H206.781C206.028 43.2843 205.418 43.2309 204.952 43.1241C204.496 43.0174 204.146 42.8732 203.902 42.6917C203.669 42.5103 203.509 42.3074 203.425 42.0832C203.35 41.8697 203.313 41.6562 203.313 41.4427C203.313 40.9836 203.483 40.626 203.822 40.3697C204.162 40.1029 204.681 39.916 205.381 39.8093C206.081 39.7025 206.972 39.6491 208.053 39.6491L209.58 39.8253C208.69 39.8253 208.069 39.8733 207.719 39.9694C207.369 40.0548 207.194 40.231 207.194 40.4979C207.194 40.6473 207.263 40.7594 207.401 40.8341C207.539 40.8982 207.725 40.9302 207.958 40.9302H212.65C213.7 40.9302 214.527 41.005 215.131 41.1544C215.736 41.3146 216.16 41.5761 216.404 41.9391C216.658 42.3128 216.786 42.8199 216.786 43.4604V44.3732H212.968ZM209.58 37.7275C210.28 37.7275 210.842 37.6741 211.266 37.5673C211.701 37.4499 212.014 37.2951 212.205 37.1029C212.396 36.9108 212.491 36.6973 212.491 36.4624C212.491 36.1955 212.396 35.966 212.205 35.7738C212.014 35.5816 211.706 35.4322 211.282 35.3254C210.858 35.2186 210.291 35.1653 209.58 35.1653C208.88 35.1653 208.313 35.2186 207.878 35.3254C207.444 35.4322 207.125 35.5816 206.924 35.7738C206.723 35.966 206.622 36.1955 206.622 36.4624C206.622 36.6973 206.717 36.9108 206.908 37.1029C207.11 37.2951 207.428 37.4499 207.862 37.5673C208.297 37.6741 208.87 37.7275 209.58 37.7275Z" fill="#F8F4EC"/>
<path d="M228.823 41.1544C227.868 41.1544 227.009 41.0583 226.246 40.8662C225.482 40.6633 224.83 40.3804 224.289 40.0174C223.749 39.6438 223.335 39.2061 223.049 38.7043C222.762 38.1919 222.619 37.6261 222.619 37.0069C222.619 36.3877 222.762 35.8218 223.049 35.3094C223.335 34.7969 223.749 34.3592 224.289 33.9963C224.83 33.6226 225.482 33.3397 226.246 33.1475C227.009 32.9447 227.868 32.8433 228.823 32.8433C229.968 32.8433 230.986 32.9981 231.877 33.3077C232.778 33.6173 233.483 34.0817 233.992 34.7009C234.501 35.3201 234.756 36.0887 234.756 37.0069C234.756 37.8823 234.501 38.6296 233.992 39.2488C233.483 39.868 232.778 40.3431 231.877 40.674C230.986 40.9943 229.968 41.1544 228.823 41.1544ZM227.391 38.7203C228.112 38.7203 228.727 38.6563 229.236 38.5282C229.745 38.4001 230.132 38.2079 230.397 37.9517C230.662 37.6954 230.795 37.3805 230.795 37.0069C230.795 36.4304 230.498 36.0033 229.904 35.7257C229.31 35.4375 228.473 35.2934 227.391 35.2934C226.585 35.2934 225.843 35.3414 225.164 35.4375C224.496 35.5336 223.955 35.7044 223.542 35.9499C223.139 36.1955 222.937 36.5478 222.937 37.0069C222.937 37.4552 223.139 37.8022 223.542 38.0477C223.955 38.2933 224.496 38.4694 225.164 38.5762C225.843 38.6723 226.585 38.7203 227.391 38.7203ZM222.937 29.8807V37.8876C222.937 38.5709 222.911 39.1901 222.858 39.7452C222.815 40.2897 222.768 40.6847 222.715 40.9302H219.12V29.8807H222.937Z" fill="#F8F4EC"/>
<path d="M243.419 41.1704C241.733 41.1704 240.328 41.0317 239.204 40.7541C238.09 40.4765 237.253 40.0335 236.691 39.4249C236.139 38.8164 235.864 38.0157 235.864 37.0229C235.864 36.03 236.139 35.2293 236.691 34.6208C237.253 34.0016 238.09 33.5532 239.204 33.2756C240.328 32.9874 241.733 32.8433 243.419 32.8433C245.094 32.8433 246.483 32.9874 247.586 33.2756C248.7 33.5532 249.532 34.0016 250.084 34.6208C250.635 35.2293 250.911 36.03 250.911 37.0229C250.911 38.0157 250.635 38.8164 250.084 39.4249C249.532 40.0335 248.7 40.4765 247.586 40.7541C246.483 41.0317 245.094 41.1704 243.419 41.1704ZM243.419 38.8484C244.204 38.8484 244.861 38.7844 245.391 38.6563C245.921 38.5175 246.324 38.3146 246.6 38.0477C246.876 37.7702 247.014 37.4285 247.014 37.0229C247.014 36.6172 246.876 36.2756 246.6 35.998C246.335 35.7204 245.937 35.5122 245.407 35.3734C244.877 35.2347 244.214 35.1653 243.419 35.1653C242.634 35.1653 241.966 35.2347 241.415 35.3734C240.874 35.5122 240.46 35.7204 240.174 35.998C239.898 36.2649 239.76 36.6065 239.76 37.0229C239.76 37.4285 239.898 37.7702 240.174 38.0477C240.45 38.3146 240.858 38.5175 241.399 38.6563C241.95 38.7844 242.624 38.8484 243.419 38.8484Z" fill="#F8F4EC"/>
<path d="M259.573 41.1704C257.887 41.1704 256.482 41.0317 255.358 40.7541C254.245 40.4765 253.407 40.0335 252.845 39.4249C252.294 38.8164 252.018 38.0157 252.018 37.0229C252.018 36.03 252.294 35.2293 252.845 34.6208C253.407 34.0016 254.245 33.5532 255.358 33.2756C256.482 32.9874 257.887 32.8433 259.573 32.8433C261.249 32.8433 262.638 32.9874 263.741 33.2756C264.854 33.5532 265.687 34.0016 266.238 34.6208C266.789 35.2293 267.065 36.03 267.065 37.0229C267.065 38.0157 266.789 38.8164 266.238 39.4249C265.687 40.0335 264.854 40.4765 263.741 40.7541C262.638 41.0317 261.249 41.1704 259.573 41.1704ZM259.573 38.8484C260.358 38.8484 261.016 38.7844 261.546 38.6563C262.076 38.5175 262.479 38.3146 262.755 38.0477C263.03 37.7702 263.168 37.4285 263.168 37.0229C263.168 36.6172 263.03 36.2756 262.755 35.998C262.49 35.7204 262.092 35.5122 261.562 35.3734C261.031 35.2347 260.369 35.1653 259.573 35.1653C258.789 35.1653 258.121 35.2347 257.569 35.3734C257.029 35.5122 256.615 35.7204 256.329 35.998C256.053 36.2649 255.915 36.6065 255.915 37.0229C255.915 37.4285 256.053 37.7702 256.329 38.0477C256.604 38.3146 257.013 38.5175 257.553 38.6563C258.105 38.7844 258.778 38.8484 259.573 38.8484Z" fill="#F8F4EC"/>
<path d="M267.934 33.0835H277.287V35.4855H267.934V33.0835ZM270.702 30.6814H274.519V40.9302H270.702V30.6814Z" fill="#F8F4EC"/>
<path d="M240.837 51.3152C240.193 51.3152 239.62 51.2251 239.119 51.0449C238.618 50.8588 238.221 50.5915 237.929 50.2432C237.643 49.8949 237.499 49.4746 237.499 48.9822C237.499 48.4657 237.643 48.0333 237.929 47.685C238.221 47.3367 238.618 47.0755 239.119 46.9014C239.62 46.7272 240.193 46.6401 240.837 46.6401C241.374 46.6401 241.857 46.6972 242.286 46.8113C242.716 46.9194 243.082 47.0785 243.387 47.2887C243.691 47.4929 243.924 47.7391 244.085 48.0273C244.246 48.3156 244.326 48.6339 244.326 48.9822C244.326 49.3305 244.246 49.6487 244.085 49.937C243.924 50.2192 243.691 50.4654 243.387 50.6756C243.082 50.8798 242.716 51.0389 242.286 51.153C241.857 51.2611 241.374 51.3152 240.837 51.3152ZM241.642 49.946C242.095 49.946 242.51 49.919 242.886 49.8649C243.267 49.8049 243.572 49.7058 243.798 49.5677C244.031 49.4295 244.147 49.2344 244.147 48.9822C244.147 48.7239 244.031 48.5258 243.798 48.3876C243.572 48.2495 243.267 48.1534 242.886 48.0994C242.51 48.0454 242.095 48.0183 241.642 48.0183C241.034 48.0183 240.562 48.0994 240.228 48.2615C239.894 48.4177 239.727 48.6579 239.727 48.9822C239.727 49.1923 239.802 49.3695 239.951 49.5136C240.1 49.6577 240.318 49.7658 240.604 49.8379C240.89 49.91 241.236 49.946 241.642 49.946ZM244.147 44.9737H246.295V51.1891H244.272C244.249 51.0509 244.222 50.8287 244.192 50.5225C244.162 50.2102 244.147 49.8619 244.147 49.4776V44.9737Z" fill="#F8F4EC"/>
<path d="M247.562 46.7753H249.709V52.9906H247.562V46.7753ZM249.772 44.4603V45.8114H247.499V44.4603H249.772Z" fill="#F8F4EC"/>
<path d="M253.917 51.3152C253.273 51.3152 252.7 51.2251 252.199 51.0449C251.698 50.8588 251.301 50.5915 251.009 50.2432C250.723 49.8949 250.579 49.4746 250.579 48.9822C250.579 48.4657 250.723 48.0333 251.009 47.685C251.301 47.3367 251.698 47.0755 252.199 46.9014C252.7 46.7272 253.273 46.6401 253.917 46.6401C254.632 46.6401 255.25 46.7392 255.769 46.9374C256.294 47.1296 256.696 47.4028 256.977 47.7571C257.263 48.1054 257.406 48.5138 257.406 48.9822C257.406 49.3305 257.326 49.6487 257.165 49.937C257.003 50.2192 256.771 50.4654 256.467 50.6756C256.162 50.8798 255.796 51.0389 255.366 51.153C254.937 51.2611 254.454 51.3152 253.917 51.3152ZM254.722 49.946C255.175 49.946 255.59 49.919 255.966 49.8649C256.347 49.8049 256.652 49.7058 256.878 49.5677C257.111 49.4295 257.227 49.2344 257.227 48.9822C257.227 48.7239 257.111 48.5258 256.878 48.3876C256.652 48.2495 256.347 48.1534 255.966 48.0994C255.59 48.0454 255.175 48.0183 254.722 48.0183C254.114 48.0183 253.642 48.0994 253.308 48.2615C252.974 48.4177 252.807 48.6579 252.807 48.9822C252.807 49.1923 252.882 49.3695 253.031 49.5136C253.18 49.6577 253.398 49.7658 253.684 49.8379C253.97 49.91 254.316 49.946 254.722 49.946ZM257.227 46.7753H259.374V51.1891H257.352C257.352 51.1891 257.34 51.12 257.317 50.9819C257.299 50.8438 257.278 50.6456 257.254 50.3874C257.236 50.1291 257.227 49.8259 257.227 49.4776V46.7753Z" fill="#F8F4EC"/>
<path d="M260.184 46.7753H262.331V51.1891H260.184V46.7753ZM265.552 46.6401C265.904 46.6401 266.244 46.6792 266.572 46.7572C266.9 46.8293 267.193 46.9554 267.449 47.1356C267.712 47.3157 267.92 47.5619 268.075 47.8742C268.23 48.1865 268.308 48.5798 268.308 49.0542V51.1891H266.161V49.3245C266.161 48.8741 266.044 48.5558 265.812 48.3696C265.579 48.1775 265.159 48.0814 264.55 48.0814C264.228 48.0814 263.915 48.1174 263.611 48.1895C263.313 48.2615 263.044 48.3486 262.805 48.4507C262.567 48.5468 262.379 48.6429 262.242 48.7389L262.224 48.3967C262.248 48.2886 262.328 48.1384 262.466 47.9463C262.609 47.7481 262.814 47.5499 263.083 47.3518C263.351 47.1536 263.688 46.9854 264.094 46.8473C264.505 46.7092 264.992 46.6401 265.552 46.6401Z" fill="#F8F4EC"/>
<path d="M272.728 50.5675C271.881 50.5675 271.183 50.4985 270.635 50.3603C270.086 50.2162 269.68 50.003 269.418 49.7208C269.155 49.4325 269.024 49.0722 269.024 48.6399C269.024 48.2375 269.152 47.8892 269.409 47.595C269.665 47.2947 270.065 47.0605 270.608 46.8924C271.157 46.7242 271.863 46.6401 272.728 46.6401C272.901 46.6401 273.077 46.6401 273.256 46.6401C273.435 46.6401 273.611 46.6401 273.784 46.6401H277.202V47.7751C276.814 47.7931 276.42 47.7751 276.021 47.7211C275.627 47.661 275.263 47.583 274.929 47.4869L274.831 47.3518C275.099 47.4358 275.353 47.5439 275.591 47.676C275.836 47.8081 276.033 47.9673 276.182 48.1534C276.331 48.3396 276.406 48.5618 276.406 48.82C276.406 49.1923 276.277 49.5106 276.021 49.7748C275.77 50.0331 275.374 50.2312 274.831 50.3694C274.294 50.5015 273.593 50.5675 272.728 50.5675ZM274.634 53.1257V52.8825C274.634 52.7024 274.553 52.5943 274.392 52.5582C274.237 52.5282 273.99 52.5132 273.65 52.5132H271.154C270.73 52.5132 270.387 52.4832 270.125 52.4231C269.868 52.3631 269.671 52.282 269.534 52.1799C269.403 52.0778 269.313 51.9637 269.266 51.8376C269.224 51.7175 269.203 51.5974 269.203 51.4773C269.203 51.2191 269.299 51.0179 269.489 50.8738C269.68 50.7237 269.973 50.6186 270.366 50.5585C270.76 50.4985 271.261 50.4684 271.869 50.4684L272.728 50.5675C272.227 50.5675 271.878 50.5945 271.681 50.6486C271.485 50.6966 271.386 50.7957 271.386 50.9458C271.386 51.0299 271.425 51.093 271.503 51.135C271.58 51.171 271.684 51.1891 271.816 51.1891H274.455C275.046 51.1891 275.511 51.2311 275.851 51.3152C276.191 51.4052 276.429 51.5524 276.567 51.7565C276.71 51.9667 276.781 52.252 276.781 52.6123V53.1257H274.634ZM272.728 49.3875C273.122 49.3875 273.438 49.3575 273.677 49.2974C273.921 49.2314 274.097 49.1443 274.205 49.0362C274.312 48.9281 274.366 48.808 274.366 48.6759C274.366 48.5258 274.312 48.3967 274.205 48.2886C274.097 48.1805 273.924 48.0964 273.686 48.0363C273.447 47.9763 273.128 47.9463 272.728 47.9463C272.335 47.9463 272.016 47.9763 271.771 48.0363C271.526 48.0964 271.347 48.1805 271.234 48.2886C271.121 48.3967 271.064 48.5258 271.064 48.6759C271.064 48.808 271.118 48.9281 271.225 49.0362C271.339 49.1443 271.517 49.2314 271.762 49.2974C272.007 49.3575 272.329 49.3875 272.728 49.3875Z" fill="#F8F4EC"/>
<path d="M281.671 51.3242C280.722 51.3242 279.932 51.2461 279.3 51.09C278.673 50.9338 278.202 50.6846 277.886 50.3423C277.576 50 277.421 49.5496 277.421 48.9912C277.421 48.4327 277.576 47.9823 277.886 47.64C278.202 47.2917 278.673 47.0395 279.3 46.8834C279.932 46.7212 280.722 46.6401 281.671 46.6401C282.613 46.6401 283.395 46.7212 284.015 46.8834C284.641 47.0395 285.109 47.2917 285.42 47.64C285.73 47.9823 285.885 48.4327 285.885 48.9912C285.885 49.5496 285.73 50 285.42 50.3423C285.109 50.6846 284.641 50.9338 284.015 51.09C283.395 51.2461 282.613 51.3242 281.671 51.3242ZM281.671 50.0181C282.112 50.0181 282.482 49.982 282.78 49.91C283.078 49.8319 283.305 49.7178 283.46 49.5677C283.615 49.4115 283.693 49.2194 283.693 48.9912C283.693 48.763 283.615 48.5708 283.46 48.4147C283.311 48.2585 283.087 48.1414 282.789 48.0634C282.491 47.9853 282.118 47.9463 281.671 47.9463C281.229 47.9463 280.854 47.9853 280.543 48.0634C280.239 48.1414 280.007 48.2585 279.846 48.4147C279.69 48.5648 279.613 48.757 279.613 48.9912C279.613 49.2194 279.69 49.4115 279.846 49.5677C280.001 49.7178 280.23 49.8319 280.534 49.91C280.845 49.982 281.223 50.0181 281.671 50.0181Z" fill="#F8F4EC"/>
<path d="M60.4305 97.3288H66.276V98.8301H60.4305V97.3288ZM62.1603 95.8275H64.5462V102.233H62.1603V95.8275Z" fill="#F8F4EC"/>
<path d="M73.6418 100.471H75.9879C75.9283 100.858 75.7361 101.195 75.4113 101.482C75.0932 101.769 74.6259 101.993 74.0096 102.153C73.3999 102.306 72.6211 102.383 71.6734 102.383C70.6726 102.383 69.8077 102.303 69.0787 102.143C68.3563 101.983 67.7996 101.713 67.4086 101.332C67.0176 100.952 66.822 100.438 66.822 99.7909C66.822 99.1503 67.0109 98.6399 67.3887 98.2596C67.7731 97.8726 68.3265 97.5957 69.0489 97.4289C69.7713 97.262 70.6461 97.1786 71.6734 97.1786C72.6808 97.1786 73.5059 97.2687 74.1488 97.4489C74.7916 97.629 75.2655 97.9226 75.5704 98.3296C75.8752 98.73 76.021 99.2738 76.0078 99.961H69.2477C69.2809 100.135 69.3736 100.295 69.5261 100.441C69.6851 100.588 69.927 100.708 70.2518 100.802C70.5832 100.889 71.0239 100.932 71.574 100.932C72.1439 100.932 72.6112 100.892 72.9757 100.812C73.3468 100.732 73.5689 100.618 73.6418 100.471ZM71.574 98.6299C70.8715 98.6299 70.3346 98.7066 69.9635 98.8601C69.599 99.0135 69.3836 99.167 69.3173 99.3205H73.6915C73.6451 99.147 73.4595 98.9902 73.1348 98.8501C72.81 98.7033 72.2897 98.6299 71.574 98.6299Z" fill="#F8F4EC"/>
<path d="M76.8045 97.3288H79.1904V102.233H76.8045V97.3288ZM81.7552 99.1804C81.3244 99.1804 80.9301 99.2204 80.5722 99.3005C80.2143 99.3805 79.9095 99.4773 79.6576 99.5907C79.4058 99.6975 79.2169 99.8042 79.091 99.911L79.0711 99.4306C79.091 99.2905 79.144 99.127 79.2302 98.9402C79.3163 98.7467 79.4323 98.5498 79.5781 98.3496C79.7239 98.1428 79.9028 97.9526 80.1149 97.7792C80.327 97.599 80.5689 97.4555 80.8406 97.3488C81.119 97.2354 81.4239 97.1786 81.7552 97.1786V99.1804Z" fill="#F8F4EC"/>
<path d="M82.4062 97.3288H84.7921V102.233H82.4062V97.3288ZM87.3569 99.1804C86.9261 99.1804 86.5318 99.2204 86.1739 99.3005C85.816 99.3805 85.5111 99.4773 85.2593 99.5907C85.0075 99.6975 84.8186 99.8042 84.6926 99.911L84.6728 99.4306C84.6926 99.2905 84.7457 99.127 84.8318 98.9402C84.918 98.7467 85.034 98.5498 85.1798 98.3496C85.3256 98.1428 85.5045 97.9526 85.7166 97.7792C85.9287 97.599 86.1706 97.4555 86.4423 97.3488C86.7207 97.2354 87.0255 97.1786 87.3569 97.1786V99.1804Z" fill="#F8F4EC"/>
<path d="M91.6165 102.373C90.9007 102.373 90.2645 102.273 89.7078 102.073C89.1511 101.866 88.7104 101.569 88.3856 101.182C88.0675 100.795 87.9084 100.328 87.9084 99.7809C87.9084 99.207 88.0675 98.7266 88.3856 98.3396C88.7104 97.9526 89.1511 97.6624 89.7078 97.4689C90.2645 97.2754 90.9007 97.1786 91.6165 97.1786C92.4118 97.1786 93.0978 97.2887 93.6744 97.5089C94.2576 97.7224 94.7049 98.026 95.0164 98.4197C95.3345 98.8067 95.4936 99.2604 95.4936 99.7809C95.4936 100.168 95.4041 100.522 95.2252 100.842C95.0462 101.155 94.7878 101.429 94.4498 101.662C94.1118 101.889 93.7042 102.066 93.227 102.193C92.7498 102.313 92.213 102.373 91.6165 102.373ZM92.5112 100.852C93.0149 100.852 93.4755 100.822 93.8931 100.762C94.3172 100.695 94.6552 100.585 94.9071 100.431C95.1656 100.278 95.2948 100.061 95.2948 99.7809C95.2948 99.494 95.1656 99.2738 94.9071 99.1203C94.6552 98.9669 94.3172 98.8601 93.8931 98.8C93.4755 98.74 93.0149 98.71 92.5112 98.71C91.8352 98.71 91.3116 98.8 90.9405 98.9802C90.5694 99.1537 90.3838 99.4206 90.3838 99.7809C90.3838 100.014 90.4666 100.211 90.6323 100.371C90.798 100.532 91.0399 100.652 91.358 100.732C91.6762 100.812 92.0606 100.852 92.5112 100.852ZM95.2948 97.3288H97.6807V102.233H95.434C95.434 102.233 95.4207 102.156 95.3942 102.003C95.3743 101.849 95.3511 101.629 95.3246 101.342C95.3047 101.055 95.2948 100.718 95.2948 100.331V97.3288Z" fill="#F8F4EC"/>
<path d="M98.3316 97.629H104.634V99.1303H98.3316V97.629ZM102.338 95.327H104.634V96.9284H103.332C103.067 96.9218 102.862 96.9351 102.716 96.9685C102.577 97.0018 102.477 97.0685 102.417 97.1686C102.364 97.2687 102.338 97.4222 102.338 97.629V102.233H99.952V97.1286C99.952 96.7282 100.025 96.3946 100.171 96.1277C100.323 95.8608 100.572 95.6607 100.916 95.5272C101.268 95.3938 101.741 95.327 102.338 95.327Z" fill="#F8F4EC"/>
<path d="M109.902 102.383C108.848 102.383 107.97 102.296 107.267 102.123C106.571 101.949 106.048 101.673 105.696 101.292C105.352 100.912 105.179 100.411 105.179 99.7909C105.179 99.1704 105.352 98.6699 105.696 98.2896C106.048 97.9026 106.571 97.6224 107.267 97.4489C107.97 97.2687 108.848 97.1786 109.902 97.1786C110.949 97.1786 111.817 97.2687 112.506 97.4489C113.202 97.6224 113.722 97.9026 114.067 98.2896C114.412 98.6699 114.584 99.1704 114.584 99.7909C114.584 100.411 114.412 100.912 114.067 101.292C113.722 101.673 113.202 101.949 112.506 102.123C111.817 102.296 110.949 102.383 109.902 102.383ZM109.902 100.932C110.392 100.932 110.803 100.892 111.134 100.812C111.466 100.725 111.717 100.598 111.89 100.431C112.062 100.258 112.148 100.044 112.148 99.7909C112.148 99.5373 112.062 99.3238 111.89 99.1503C111.724 98.9769 111.476 98.8467 111.144 98.76C110.813 98.6733 110.399 98.6299 109.902 98.6299C109.411 98.6299 108.994 98.6733 108.649 98.76C108.311 98.8467 108.052 98.9769 107.874 99.1503C107.701 99.3171 107.615 99.5307 107.615 99.7909C107.615 100.044 107.701 100.258 107.874 100.431C108.046 100.598 108.301 100.725 108.639 100.812C108.984 100.892 109.404 100.932 109.902 100.932Z" fill="#F8F4EC"/>
<path d="M115.375 97.3288H117.761V102.233H115.375V97.3288ZM120.326 99.1804C119.895 99.1804 119.501 99.2204 119.143 99.3005C118.785 99.3805 118.48 99.4773 118.229 99.5907C117.977 99.6975 117.788 99.8042 117.662 99.911L117.642 99.4306C117.662 99.2905 117.715 99.127 117.801 98.9402C117.887 98.7467 118.003 98.5498 118.149 98.3496C118.295 98.1428 118.474 97.9526 118.686 97.7792C118.898 97.599 119.14 97.4555 119.412 97.3488C119.69 97.2354 119.995 97.1786 120.326 97.1786V99.1804Z" fill="#F8F4EC"/>
<path d="M120.977 97.3288H123.363V102.233H120.977V97.3288ZM126.942 97.1786C127.333 97.1786 127.711 97.222 128.075 97.3087C128.44 97.3888 128.764 97.5289 129.049 97.7291C129.341 97.9293 129.573 98.2029 129.745 98.5498C129.918 98.8968 130.004 99.3338 130.004 99.8609V102.233H127.618V100.161C127.618 99.6608 127.489 99.3071 127.23 99.1003C126.972 98.8868 126.504 98.78 125.828 98.78C125.471 98.78 125.123 98.8201 124.785 98.9001C124.453 98.9802 124.155 99.0769 123.89 99.1904C123.625 99.2971 123.416 99.4039 123.264 99.5107L123.244 99.1303C123.27 99.0102 123.36 98.8434 123.512 98.6299C123.671 98.4097 123.9 98.1895 124.198 97.9693C124.496 97.7491 124.871 97.5623 125.321 97.4088C125.779 97.2554 126.319 97.1786 126.942 97.1786ZM133.463 97.1786C133.854 97.1786 134.232 97.222 134.597 97.3087C134.961 97.3888 135.286 97.5289 135.571 97.7291C135.863 97.9293 136.094 98.2029 136.267 98.5498C136.439 98.8968 136.525 99.3338 136.525 99.8609V102.233H134.139V100.161C134.139 99.6608 134.01 99.3071 133.752 99.1003C133.493 98.8868 133.026 98.78 132.35 98.78C131.992 98.78 131.644 98.8201 131.306 98.9001C130.975 98.9802 130.676 99.0769 130.411 99.1904C130.146 99.2971 129.938 99.4039 129.785 99.5107L129.765 99.0302C129.792 98.9301 129.891 98.78 130.063 98.5798C130.236 98.3797 130.478 98.1728 130.789 97.9593C131.107 97.7458 131.488 97.5623 131.932 97.4088C132.383 97.2554 132.893 97.1786 133.463 97.1786Z" fill="#F8F4EC"/>
<path d="M129.244 9.00275H137.595V33.1736H129.244V9.00275ZM137.838 0V5.25452H129V0H137.838Z" fill="#F8F4EC"/>
<path d="M153.957 26.6579C151.452 26.6579 149.225 26.3076 147.277 25.607C145.328 24.8831 143.785 23.8439 142.649 22.4894C141.535 21.1349 140.979 19.5001 140.979 17.5851C140.979 15.5767 141.535 13.8953 142.649 12.5408C143.785 11.1863 145.328 10.1704 147.277 9.49317C149.225 8.81592 151.452 8.4773 153.957 8.4773C156.741 8.4773 159.141 8.86263 161.159 9.63329C163.201 10.3806 164.767 11.4432 165.857 12.821C166.97 14.1755 167.527 15.7636 167.527 17.5851C167.527 18.9396 167.214 20.1774 166.587 21.2983C165.961 22.3959 165.056 23.3534 163.873 24.1708C162.69 24.9648 161.264 25.5837 159.594 26.0274C157.924 26.4478 156.045 26.6579 153.957 26.6579ZM157.089 21.3334C158.851 21.3334 160.464 21.2283 161.925 21.0181C163.41 20.7846 164.593 20.3992 165.474 19.8621C166.379 19.325 166.831 18.566 166.831 17.5851C166.831 16.5809 166.379 15.8103 165.474 15.2731C164.593 14.736 163.41 14.3624 161.925 14.1522C160.464 13.942 158.851 13.8369 157.089 13.8369C154.723 13.8369 152.89 14.1522 151.591 14.7827C150.292 15.3899 149.643 16.3241 149.643 17.5851C149.643 18.4025 149.932 19.0914 150.512 19.6519C151.092 20.2124 151.939 20.6328 153.052 20.913C154.166 21.1932 155.511 21.3334 157.089 21.3334ZM166.831 9.00275H175.182V26.1675H167.318C167.318 26.1675 167.272 25.899 167.179 25.3618C167.109 24.8247 167.028 24.054 166.935 23.0498C166.866 22.0456 166.831 20.8663 166.831 19.5118V9.00275Z" fill="#F8F4EC"/>
<path d="M194.509 23.0148L190.543 22.9447L199.311 9.00275H208.531L196.388 26.1675H188.524L176.938 9.00275H186.124L194.509 23.0148Z" fill="#F8F4EC"/>
<path d="M221.507 26.6579C219.002 26.6579 216.775 26.3076 214.827 25.607C212.878 24.8831 211.336 23.8439 210.199 22.4894C209.086 21.1349 208.529 19.5001 208.529 17.5851C208.529 15.5767 209.086 13.8953 210.199 12.5408C211.336 11.1863 212.878 10.1704 214.827 9.49317C216.775 8.81592 219.002 8.4773 221.507 8.4773C224.291 8.4773 226.692 8.86263 228.71 9.63329C230.751 10.3806 232.317 11.4432 233.407 12.821C234.52 14.1755 235.077 15.7636 235.077 17.5851C235.077 18.9396 234.764 20.1774 234.138 21.2983C233.511 22.3959 232.607 23.3534 231.424 24.1708C230.241 24.9648 228.814 25.5837 227.144 26.0274C225.474 26.4478 223.595 26.6579 221.507 26.6579ZM224.639 21.3334C226.402 21.3334 228.014 21.2283 229.475 21.0181C230.96 20.7846 232.143 20.3992 233.024 19.8621C233.929 19.325 234.381 18.566 234.381 17.5851C234.381 16.5809 233.929 15.8103 233.024 15.2731C232.143 14.736 230.96 14.3624 229.475 14.1522C228.014 13.942 226.402 13.8369 224.639 13.8369C222.273 13.8369 220.44 14.1522 219.141 14.7827C217.842 15.3899 217.193 16.3241 217.193 17.5851C217.193 18.4025 217.483 19.0914 218.063 19.6519C218.642 20.2124 219.489 20.6328 220.603 20.913C221.716 21.1932 223.061 21.3334 224.639 21.3334ZM234.381 9.00275H242.732V26.1675H234.868C234.868 26.1675 234.822 25.899 234.729 25.3618C234.659 24.8247 234.578 24.054 234.486 23.0498C234.416 22.0456 234.381 20.8663 234.381 19.5118V9.00275Z" fill="#F8F4EC"/>
<path d="M32.2917 106.462H37.66V122H32.2917V106.462ZM37.8166 100.674V104.052H32.1352V100.674H37.8166Z" fill="#F8F4EC"/>
<path d="M48.1787 117.811C46.5682 117.811 45.1367 117.586 43.8841 117.136C42.6315 116.67 41.6398 116.002 40.9091 115.132C40.1934 114.261 39.8355 113.21 39.8355 111.979C39.8355 110.688 40.1934 109.607 40.9091 108.736C41.6398 107.865 42.6315 107.212 43.8841 106.777C45.1367 106.342 46.5682 106.124 48.1787 106.124C49.9681 106.124 51.5115 106.372 52.8088 106.867C54.1211 107.347 55.1276 108.03 55.8285 108.916C56.5443 109.787 56.9022 110.808 56.9022 111.979C56.9022 112.85 56.7008 113.645 56.2982 114.366C55.8956 115.072 55.314 115.687 54.5535 116.213C53.793 116.723 52.8759 117.121 51.8023 117.406C50.7286 117.676 49.5208 117.811 48.1787 117.811ZM50.1918 114.388C51.3251 114.388 52.3615 114.321 53.3009 114.186C54.2553 114.036 55.0158 113.788 55.5824 113.443C56.164 113.097 56.4548 112.609 56.4548 111.979C56.4548 111.333 56.164 110.838 55.5824 110.493C55.0158 110.147 54.2553 109.907 53.3009 109.772C52.3615 109.637 51.3251 109.569 50.1918 109.569C48.6708 109.569 47.4927 109.772 46.6577 110.177C45.8226 110.568 45.4051 111.168 45.4051 111.979C45.4051 112.504 45.5915 112.947 45.9643 113.308C46.3371 113.668 46.8813 113.938 47.5971 114.118C48.3129 114.298 49.1778 114.388 50.1918 114.388ZM56.4548 106.462H61.8231V117.496H56.7679C56.7679 117.496 56.7381 117.323 56.6785 116.978C56.6337 116.633 56.5815 116.137 56.5219 115.492C56.4772 114.846 56.4548 114.088 56.4548 113.217V106.462Z" fill="#F8F4EC"/>
<path d="M74.2479 115.469L71.698 115.424L77.3347 106.462H83.2622L75.4558 117.496H70.4006L62.9521 106.462H68.8572L74.2479 115.469Z" fill="#F8F4EC"/>
<path d="M91.6038 117.811C89.9933 117.811 88.5618 117.586 87.3092 117.136C86.0566 116.67 85.0649 116.002 84.3342 115.132C83.6185 114.261 83.2606 113.21 83.2606 111.979C83.2606 110.688 83.6185 109.607 84.3342 108.736C85.0649 107.865 86.0566 107.212 87.3092 106.777C88.5618 106.342 89.9933 106.124 91.6038 106.124C93.3932 106.124 94.9366 106.372 96.2339 106.867C97.5462 107.347 98.5527 108.03 99.2536 108.916C99.9694 109.787 100.327 110.808 100.327 111.979C100.327 112.85 100.126 113.645 99.7233 114.366C99.3207 115.072 98.7391 115.687 97.9786 116.213C97.2181 116.723 96.301 117.121 95.2274 117.406C94.1537 117.676 92.9459 117.811 91.6038 117.811ZM93.6169 114.388C94.7502 114.388 95.7866 114.321 96.726 114.186C97.6804 114.036 98.4409 113.788 99.0076 113.443C99.5891 113.097 99.8799 112.609 99.8799 111.979C99.8799 111.333 99.5891 110.838 99.0076 110.493C98.4409 110.147 97.6804 109.907 96.726 109.772C95.7866 109.637 94.7502 109.569 93.6169 109.569C92.0959 109.569 90.9178 109.772 90.0828 110.177C89.2477 110.568 88.8302 111.168 88.8302 111.979C88.8302 112.504 89.0166 112.947 89.3894 113.308C89.7622 113.668 90.3065 113.938 91.0222 114.118C91.738 114.298 92.6029 114.388 93.6169 114.388ZM99.8799 106.462H105.248V117.496H100.193C100.193 117.496 100.163 117.323 100.104 116.978C100.059 116.633 100.007 116.137 99.947 115.492C99.9023 114.846 99.8799 114.088 99.8799 113.217V106.462Z" fill="#F8F4EC"/>
<path d="M107.16 113.533H112.103C112.312 113.923 112.707 114.193 113.289 114.343C113.885 114.494 114.735 114.569 115.839 114.569C116.689 114.569 117.315 114.524 117.718 114.433C118.135 114.343 118.404 114.223 118.523 114.073C118.657 113.923 118.724 113.765 118.724 113.6C118.724 113.345 118.583 113.172 118.299 113.082C118.031 112.977 117.569 112.917 116.913 112.902C116.256 112.872 115.354 112.857 114.206 112.857C113.117 112.857 112.141 112.812 111.276 112.722C110.426 112.617 109.703 112.459 109.106 112.249C108.51 112.024 108.055 111.716 107.742 111.326C107.429 110.935 107.272 110.448 107.272 109.862C107.272 109.141 107.503 108.541 107.965 108.061C108.428 107.565 109.054 107.182 109.844 106.912C110.635 106.627 111.544 106.424 112.573 106.304C113.617 106.184 114.706 106.124 115.839 106.124C117.718 106.124 119.254 106.319 120.447 106.709C121.64 107.085 122.519 107.595 123.086 108.241C123.653 108.886 123.929 109.614 123.914 110.425H119.105C118.941 110.035 118.627 109.764 118.165 109.614C117.718 109.464 116.942 109.389 115.839 109.389C114.795 109.389 114.035 109.472 113.557 109.637C113.095 109.787 112.864 110.035 112.864 110.38C112.864 110.605 112.976 110.778 113.199 110.898C113.438 111.003 113.878 111.078 114.519 111.123C115.175 111.168 116.13 111.191 117.382 111.191C118.247 111.191 119.09 111.221 119.91 111.281C120.745 111.341 121.49 111.468 122.147 111.664C122.818 111.859 123.347 112.159 123.735 112.564C124.122 112.97 124.316 113.525 124.316 114.231C124.316 115.087 123.966 115.785 123.265 116.325C122.579 116.851 121.602 117.233 120.335 117.474C119.067 117.714 117.569 117.834 115.839 117.834C114.333 117.834 113.058 117.736 112.014 117.541C110.985 117.346 110.143 117.091 109.486 116.776C108.83 116.445 108.323 116.092 107.965 115.717C107.622 115.327 107.391 114.944 107.272 114.569C107.168 114.178 107.13 113.833 107.16 113.533Z" fill="#F8F4EC"/>
<path d="M146.545 112.7C146.545 113.78 146.21 114.704 145.539 115.469C144.868 116.235 143.809 116.821 142.363 117.226C140.916 117.631 139.037 117.834 136.726 117.834C134.415 117.834 132.446 117.646 130.821 117.271C129.21 116.896 127.98 116.28 127.13 115.424C126.295 114.569 125.877 113.428 125.877 112.001C125.877 110.575 126.295 109.434 127.13 108.578C127.98 107.708 129.21 107.085 130.821 106.709C132.446 106.319 134.415 106.124 136.726 106.124C139.037 106.124 140.909 106.327 142.34 106.732C143.772 107.137 144.823 107.723 145.494 108.488C146.165 109.254 146.508 110.17 146.523 111.236H141.602C141.363 110.65 140.827 110.2 139.992 109.885C139.157 109.554 138.068 109.389 136.726 109.389C135.637 109.389 134.69 109.472 133.885 109.637C133.08 109.787 132.454 110.05 132.006 110.425C131.574 110.8 131.358 111.326 131.358 112.001C131.358 112.662 131.574 113.18 132.006 113.555C132.439 113.931 133.058 114.193 133.863 114.343C134.668 114.494 135.622 114.569 136.726 114.569C138.068 114.569 139.157 114.411 139.992 114.096C140.842 113.765 141.386 113.3 141.624 112.7H146.545Z" fill="#F8F4EC"/>
<path d="M148.338 106.462H153.706V117.496H148.338V106.462ZM159.477 110.628C158.508 110.628 157.621 110.718 156.815 110.898C156.01 111.078 155.324 111.296 154.758 111.551C154.191 111.791 153.766 112.031 153.483 112.272L153.438 111.191C153.483 110.875 153.602 110.508 153.796 110.087C153.99 109.652 154.251 109.209 154.579 108.759C154.907 108.293 155.309 107.865 155.786 107.475C156.264 107.07 156.808 106.747 157.419 106.507C158.046 106.251 158.732 106.124 159.477 106.124V110.628Z" fill="#F8F4EC"/>
<path d="M166.847 100.674V104.052H161.165V100.674H166.847ZM161.322 106.462H166.69V117.496H161.322V106.462Z" fill="#F8F4EC"/>
<path d="M182.734 117.834C181.392 117.834 180.184 117.699 179.11 117.429C178.037 117.143 177.119 116.745 176.359 116.235C175.598 115.71 175.017 115.087 174.614 114.366C174.212 113.645 174.01 112.85 174.01 111.979C174.01 111.108 174.212 110.32 174.614 109.614C175.017 108.894 175.598 108.278 176.359 107.768C177.119 107.242 178.037 106.844 179.11 106.574C180.184 106.289 181.392 106.146 182.734 106.146C184.344 106.146 185.776 106.379 187.028 106.844C188.296 107.295 189.288 107.955 190.003 108.826C190.719 109.697 191.077 110.748 191.077 111.979C191.077 113.27 190.719 114.351 190.003 115.222C189.288 116.092 188.296 116.745 187.028 117.181C185.776 117.616 184.344 117.834 182.734 117.834ZM180.721 114.388C181.735 114.388 182.6 114.298 183.315 114.118C184.031 113.938 184.575 113.675 184.948 113.33C185.321 112.97 185.507 112.519 185.507 111.979C185.507 111.183 185.09 110.583 184.255 110.177C183.42 109.772 182.242 109.569 180.721 109.569C179.587 109.569 178.544 109.637 177.589 109.772C176.65 109.907 175.889 110.155 175.308 110.515C174.741 110.86 174.458 111.348 174.458 111.979C174.458 112.609 174.741 113.105 175.308 113.465C175.889 113.81 176.65 114.051 177.589 114.186C178.544 114.321 179.587 114.388 180.721 114.388ZM169.089 106.462H174.145L174.458 110.74V122H169.089V106.462Z" fill="#F8F4EC"/>
<path d="M192.318 106.462H205.47V109.84H192.318V106.462ZM196.21 103.084H201.578V117.496H196.21V103.084Z" fill="#F8F4EC"/>
<path d="M25.7727 69.092C23.2377 69.092 20.9562 68.8367 18.9282 68.3263C16.9002 67.7875 15.1679 67.036 13.7314 66.0719C12.2949 65.0793 11.1964 63.9025 10.4359 62.5413C9.67534 61.1802 9.29509 59.6772 9.29509 58.0324C9.29509 56.3877 9.67534 54.8989 10.4359 53.5661C11.1964 52.2049 12.2949 51.0423 13.7314 50.0781C15.1679 49.0856 16.9002 48.3341 18.9282 47.8237C20.9562 47.2849 23.2377 47.0155 25.7727 47.0155C28.8148 47.0155 31.5188 47.455 33.8848 48.3341C36.279 49.1848 38.1521 50.4326 39.5041 52.0773C40.8561 53.7221 41.5322 55.7071 41.5322 58.0324C41.5322 60.4712 40.8561 62.513 39.5041 64.1577C38.1521 65.8025 36.279 67.036 33.8848 67.8584C31.5188 68.6808 28.8148 69.092 25.7727 69.092ZM21.9702 62.5839C23.8856 62.5839 25.5192 62.4137 26.8713 62.0734C28.2233 61.7331 29.2514 61.2369 29.9555 60.5846C30.6597 59.9041 31.0118 59.0533 31.0118 58.0324C31.0118 56.5295 30.2231 55.3952 28.6458 54.6295C27.0684 53.8639 24.8432 53.481 21.9702 53.481C19.8295 53.481 17.8578 53.6086 16.0552 53.8639C14.2806 54.1191 12.8441 54.587 11.7456 55.2676C10.6753 55.9198 10.1401 56.8414 10.1401 58.0324C10.1401 59.2235 10.6753 60.1593 11.7456 60.8399C12.8441 61.4921 14.2806 61.9458 16.0552 62.201C17.8578 62.4563 19.8295 62.5839 21.9702 62.5839ZM0 47.611H9.54859L10.1401 55.6929V76.9612H0V47.611Z" fill="#F8F4EC"/>
<path d="M43.2423 47.611H54.0162L66.3533 67.6032L57.6074 68.4539L43.2423 47.611ZM82.1127 47.611L61.5367 76.9612H51.1854L60.0157 64.9234L71.3388 47.611H82.1127Z" fill="#F8F4EC"/>
<path d="M83.1557 47.611H107.999V53.9915H83.1557V47.611ZM90.5073 41.2305H100.647V68.4539H90.5073V41.2305Z" fill="#F8F4EC"/>
<path d="M139.388 68.4539V60.7123C139.388 59.4362 139.135 58.3586 138.628 57.4795C138.121 56.6004 137.219 55.9482 135.924 55.5228C134.656 55.0691 132.853 54.8422 130.515 54.8422C129.192 54.8422 127.896 54.9698 126.628 55.225C125.389 55.4519 124.262 55.7355 123.248 56.0758C122.263 56.4161 121.474 56.7563 120.882 57.0966L120.798 55.0549C120.911 54.6295 121.291 53.9915 121.939 53.1407C122.615 52.2616 123.586 51.3542 124.854 50.4184C126.121 49.4542 127.713 48.646 129.628 47.9938C131.572 47.3132 133.867 46.9729 136.515 46.9729C138.177 46.9729 139.782 47.1289 141.332 47.4408C142.881 47.7528 144.261 48.2774 145.472 49.0147C146.711 49.7236 147.697 50.6878 148.43 51.9072C149.162 53.1266 149.528 54.6437 149.528 56.4586V68.4539H139.388ZM111.165 68.4539V39.1037H121.305V68.4539H111.165Z" fill="#F8F4EC"/>
<path d="M172.969 69.092C168.491 69.092 164.759 68.7233 161.773 67.986C158.815 67.2487 156.59 66.0719 155.097 64.4555C153.633 62.8391 152.9 60.7123 152.9 58.075C152.9 55.4377 153.633 53.3109 155.097 51.6945C156.59 50.0497 158.815 48.8587 161.773 48.1214C164.759 47.3558 168.491 46.9729 172.969 46.9729C177.42 46.9729 181.109 47.3558 184.039 48.1214C186.996 48.8587 189.207 50.0497 190.672 51.6945C192.137 53.3109 192.869 55.4377 192.869 58.075C192.869 60.7123 192.137 62.8391 190.672 64.4555C189.207 66.0719 186.996 67.2487 184.039 67.986C181.109 68.7233 177.42 69.092 172.969 69.092ZM172.969 62.9242C175.054 62.9242 176.8 62.754 178.208 62.4137C179.617 62.0451 180.687 61.5063 181.419 60.7973C182.152 60.06 182.518 59.1526 182.518 58.075C182.518 56.9974 182.152 56.0899 181.419 55.3526C180.715 54.6153 179.659 54.0624 178.251 53.6937C176.842 53.3251 175.082 53.1407 172.969 53.1407C170.885 53.1407 169.11 53.3251 167.646 53.6937C166.209 54.0624 165.111 54.6153 164.35 55.3526C163.618 56.0616 163.252 56.969 163.252 58.075C163.252 59.1526 163.618 60.06 164.35 60.7973C165.082 61.5063 166.167 62.0451 167.603 62.4137C169.068 62.754 170.857 62.9242 172.969 62.9242Z" fill="#F8F4EC"/>
<path d="M196.233 47.611H206.373V68.4539H196.233V47.611ZM221.584 46.9729C223.245 46.9729 224.851 47.1573 226.4 47.5259C227.949 47.8662 229.329 48.4617 230.541 49.3124C231.78 50.1632 232.766 51.3258 233.498 52.8004C234.231 54.275 234.597 56.1325 234.597 58.3727V68.4539H224.457V59.6488C224.457 57.522 223.907 56.019 222.809 55.14C221.71 54.2325 219.725 53.7788 216.852 53.7788C215.331 53.7788 213.852 53.9489 212.415 54.2892C211.007 54.6295 209.739 55.0407 208.613 55.5228C207.486 55.9765 206.599 56.4302 205.951 56.884L205.866 55.2676C205.979 54.7571 206.359 54.0482 207.007 53.1407C207.683 52.2049 208.655 51.2691 209.922 50.3333C211.19 49.3975 212.781 48.6035 214.697 47.9513C216.64 47.299 218.936 46.9729 221.584 46.9729Z" fill="#F8F4EC"/>
</svg>
